# xmcd CD database file
#
# Track frame offsets:
#	150
#	17955
#	35135
#	53830
#	69290
#	92560
#	109640
#	125440
#	137805
#	149620
#	169035
#	187325
#
# Disc length: 2681 seconds
#
# Revision: 2
# Processed by: cddbd v1.4PL0 Copyright (c) Steve Scherf et al.
# Submitted via: CDex 1.40Beta9
#
DISCID=b10a770c
DTITLE=Pholhas - Forever, 26 anos
DYEAR=1998
DGENRE=Oldies
TTITLE0=It's Too Late
TTITLE1=Forever
TTITLE2=Proud Mary
TTITLE3=Stormy
TTITLE4=Smoke Gets In Your Eyes
TTITLE5=Bus Stop
TTITLE6=All In Love Is Fair
TTITLE7=If
TTITLE8=Blue Suede Shoes
TTITLE9=Unchained Melody
TTITLE10=Reflections Of My Life
TTITLE11=In My Way
EXTD=From 1995\nRecorded at Stockholm Records\nMastered by Björn Engelmann, Cutting Room YEAR: 1998 ID3G: 11
EXTT0=Carole King/Toni Stern
EXTT1=O. Malagutti/H. Santisteban
EXTT2=John C. Fogerty
EXTT3=Buie/Cobb
EXTT4=Harback/Kern
EXTT5=Graham Gouldman
EXTT6=Stevie Wonder
EXTT7=Davis Gates
EXTT8=Carl Perkins
EXTT9=A. North/H. Zaret
EXTT10=Campbell/Mc Aleese
EXTT11=W. Benatti/P. Fernandes
PLAYORDER=
